<svg width="100" height="89" viewBox="0 0 100 89" fill="none" xmlns="http://www.w3.org/2000/svg">
<g clip-path="url(#clip0_214_686)">
<path d="M7.84341 30.132C8.15447 30.2673 8.45332 30.4025 8.66069 30.5316C8.88746 30.6636 9.0931 30.8294 9.27059 31.0235C9.44501 31.2185 9.5797 31.4462 9.66702 31.6936C9.70704 31.8238 9.70753 31.9629 9.6684 32.0933C9.62927 32.2237 9.55232 32.3393 9.44747 32.4253C8.83005 33.1129 8.09707 33.6852 7.28229 34.116C6.48637 34.5332 5.61512 34.7841 4.7207 34.8537C3.79433 34.9335 2.86646 34.7185 2.06761 34.2389C1.57113 33.9733 1.13916 33.6002 0.802762 33.1463C0.466363 32.6924 0.233881 32.169 0.122017 31.6137C0.0667185 31.3198 0.0381289 31.0214 0.0366211 30.7222C0.0366211 30.4271 0.0366256 30.0152 0.0793189 29.4926C0.085546 29.1853 0.116135 28.879 0.170801 28.5765C0.256188 26.1419 0.374113 23.6929 0.524556 21.2296C0.817311 16.3889 1.16903 11.5196 1.5797 6.62164C1.58722 6.4284 1.66674 6.24512 1.8024 6.10838C1.93806 5.97163 2.11987 5.89147 2.31157 5.88388C2.70478 5.80511 3.11234 5.84576 3.4826 6.0007C3.99887 6.13787 4.48502 6.37143 4.91586 6.68928C5.40378 7.02743 5.61726 7.39631 5.55627 7.77749C5.20253 12.2861 4.89351 16.7558 4.62922 21.1865C4.48285 23.4736 4.35068 25.7443 4.23277 27.9986C4.17178 29.3328 4.12909 30.3902 4.09859 31.1588V31.6936C4.11015 31.6806 4.12422 31.67 4.13995 31.6626C4.15567 31.6553 4.17274 31.6512 4.19009 31.6506C4.82952 31.2453 5.40859 30.7506 5.91001 30.1812C6.02182 30.0706 6.15811 29.9884 6.30763 29.9414C6.45716 29.8943 6.61562 29.8838 6.76998 29.9107C7.13767 29.9223 7.5007 29.9972 7.84341 30.132Z" fill="black"/>
<path d="M22.3592 10.1138C24.1904 11.7706 25.6983 13.7577 26.8054 15.9729C27.8882 18.1022 28.4546 20.46 28.4582 22.8527C28.4326 24.9005 27.9731 26.9192 27.1103 28.7733C26.2951 30.6032 25.0367 32.1972 23.4509 33.409C22.5479 34.1448 21.4775 34.6425 20.336 34.8571C19.1946 35.0718 18.0181 34.9967 16.9127 34.6386C14.6358 33.9516 12.7064 32.4116 11.5212 30.3349C10.4884 28.5847 10.1062 26.3591 10.3745 23.6581C10.5837 21.3844 11.0797 19.1469 11.8505 16.9997C12.6069 14.8776 13.6318 12.8628 14.9 11.0053C16.3394 8.90261 17.9882 7.73037 19.8463 7.48854C20.3713 7.44111 20.8991 7.54112 21.3711 7.77751C21.8616 7.98848 22.2931 8.31786 22.6275 8.73661C22.719 8.84667 22.7878 8.9741 22.8297 9.11137C22.8716 9.24864 22.8858 9.39298 22.8715 9.53587C22.849 9.67118 22.789 9.79728 22.6983 9.89957C22.6076 10.0019 22.49 10.0762 22.3592 10.1138ZM21.7858 29.3512C22.8252 28.0251 23.5774 26.4941 23.9937 24.857C24.4305 23.2017 24.5363 21.4754 24.3048 19.7786C23.8588 16.544 22.3312 13.5596 19.9744 11.3188C19.267 12.0965 18.6434 12.9476 18.1142 13.858C16.9745 15.7425 16.071 17.7622 15.4245 19.8708C14.8359 21.7332 14.4794 23.6621 14.3633 25.6132C14.2413 27.8695 14.5829 29.6217 15.3758 30.8698C15.5448 31.1611 15.7497 31.4296 15.9857 31.669C16.2053 31.8681 16.442 32.0471 16.6932 32.2039H16.7358C16.7902 32.2333 16.8511 32.2481 16.9127 32.247L17.2664 32.2962L17.7056 32.247C19.1002 32.0133 20.4603 31.0563 21.7858 29.3758V29.3512Z" fill="#C8C8C8"/>
<path d="M40.8698 20.2703C42.2161 21.2206 43.1365 22.6675 43.4314 24.2973C43.7641 25.9237 43.4813 27.6168 42.6385 29.0437C41.309 31.4496 38.7453 33.749 34.9477 35.9418C31.7643 37.9026 28.0748 38.8656 24.3475 38.7085C23.8197 38.6579 23.3115 38.4809 22.8654 38.192C22.4231 37.9572 22.0616 37.5928 21.8286 37.1469C21.6517 36.7288 21.7188 36.4337 22.0299 36.2554C22.3734 36.0696 22.7645 35.9925 23.1521 36.034C26.3643 36.2431 29.8997 34.952 33.7583 32.1607C34.5512 31.5951 35.216 31.091 35.7466 30.6483C36.2772 30.2056 36.8627 29.6523 37.5092 28.9945C38.1287 28.3879 38.6313 27.6708 38.9913 26.8795C39.3244 26.1442 39.5129 25.3508 39.5463 24.5432C39.6139 23.7833 39.4923 23.0183 39.1926 22.3176C39.0761 22.1131 38.9413 21.9196 38.79 21.7397C38.6762 21.5921 38.603 21.5184 38.5705 21.5184L38.5278 21.4261C38.4805 21.4219 38.4347 21.4072 38.3936 21.3831C38.2946 21.3441 38.1926 21.3133 38.0887 21.2909C37.9958 21.2743 37.9056 21.2453 37.8203 21.2048C37.6019 21.1338 37.38 21.0743 37.1555 21.0265C37.0069 21.0079 36.86 20.9771 36.7164 20.9343L34.2768 20.4056C31.5932 19.5387 30.0928 18.1922 29.7695 16.3478C29.5622 15.0751 30.0623 13.5135 31.2699 11.6752C32.5629 9.68325 33.7421 8.36142 34.8074 7.70972C35.6244 7.16366 36.5573 6.81854 37.5308 6.70215C38.5043 6.58576 39.4913 6.70134 40.4124 7.03958C41.7969 7.51913 42.5044 8.10934 42.5349 8.82252C42.5349 9.2324 42.2848 9.48446 41.7847 9.57873C41.3796 9.68427 40.9514 9.65407 40.5649 9.49267C40.3016 9.37917 40.0107 9.34707 39.7293 9.40045C39.2986 9.47248 38.885 9.62466 38.5095 9.84925C37.6608 10.2943 36.9212 10.9244 36.3443 11.6937C34.8155 13.5627 33.9474 15.1366 33.74 16.4154C33.679 16.7854 33.6935 17.1641 33.7827 17.5282C33.8077 17.6042 33.8383 17.6782 33.8742 17.7496C33.8953 17.7922 33.9097 17.8378 33.9169 17.8848L34.4902 18.0201C34.6295 18.0846 34.7775 18.1281 34.9294 18.1492C35.0493 18.1715 35.1675 18.2024 35.2831 18.2414C36.137 18.4218 36.8079 18.5693 37.2958 18.6841C37.8913 18.846 38.4743 19.0515 39.0401 19.2989C39.6847 19.5514 40.2986 19.8773 40.8698 20.2703ZM33.8864 17.8664C33.9169 17.8664 33.9352 17.8664 33.9352 17.9094V17.8664H33.8864Z" fill="black"/>
<path d="M68.7487 0.897725C68.8738 1.02635 68.9842 1.16864 69.078 1.32195C69.18 1.48123 69.2619 1.65264 69.322 1.83225C69.3509 1.91269 69.3615 1.99864 69.3531 2.08376C69.3446 2.16888 69.3173 2.25101 69.2732 2.32409C69.2243 2.40246 69.1602 2.47008 69.0847 2.5229C69.0093 2.57572 68.924 2.61265 68.8341 2.6315C64.1923 3.54705 59.6177 4.77951 55.1417 6.32036C54.0805 14.9605 53.4177 23.6437 53.1534 32.3699C53.1534 33.0831 52.5923 33.3229 51.4701 33.0831C51.0295 33.0306 50.6062 32.879 50.2315 32.6395C49.8568 32.4001 49.5401 32.079 49.3049 31.6998C49.2006 31.5585 49.1391 31.3898 49.1281 31.214C49.3964 23.4264 49.9575 15.6614 50.8114 7.91887C48.9491 8.63205 47.1194 9.40466 45.3222 10.2367C44.7123 10.5011 43.9378 10.3105 42.9375 9.65878C41.9373 9.00708 41.6262 8.42916 42.0105 7.96805C42.1118 7.83885 42.2503 7.74437 42.4069 7.69753C45.2978 6.36544 48.2437 5.16246 51.2444 4.08859C51.3603 3.14179 51.4823 2.29335 51.5982 1.55558C51.714 0.817804 52.3179 0.571879 53.495 0.940766C54.0388 1.06322 54.5426 1.32351 54.9587 1.69699C55.3979 2.08432 55.6174 2.41016 55.6174 2.68067C59.0044 1.63959 62.4219 0.762463 65.8699 0.0492827C66.3822 -0.0389573 66.9077 -0.00841528 67.4065 0.138592C67.9053 0.2856 68.3643 0.545214 68.7487 0.897725Z" fill="black"/>
<path d="M90.6991 9.3572C90.9973 13.8804 90.9687 18.4194 90.6137 22.9384C90.4348 24.9304 90.2132 26.9059 89.9489 28.8651C89.7416 30.2628 89.5647 31.2711 89.4183 31.89C89.3475 32.5804 89.0539 33.2284 88.5828 33.7345C88.3302 33.9899 88.025 34.1861 87.6887 34.3094C87.3525 34.4326 86.9935 34.4798 86.6372 34.4476C85.91 34.396 85.2026 34.1862 84.5635 33.8328C83.9476 33.5051 83.3809 33.0911 82.8801 32.6032C82.7338 32.4249 82.5874 32.2405 82.441 32.0437C82.2889 31.8526 82.1561 31.6466 82.0446 31.4289C81.9226 31.1953 81.825 30.9801 81.7335 30.7833C81.642 30.5866 81.5505 30.3653 81.4469 30.0948C81.3432 29.8242 81.2639 29.6029 81.2029 29.4246L80.9589 28.693C80.8785 28.4682 80.8133 28.2381 80.7638 28.0044C80.288 26.6641 79.8489 25.2992 79.4342 23.9036C79.3793 25.0656 79.2878 26.8609 79.1719 29.2955C79.056 31.7302 78.9646 33.5992 78.9036 34.8288C78.9036 35.5727 78.2937 35.8064 77.2263 35.542C76.7858 35.4868 76.3616 35.339 75.9812 35.1081C75.6009 34.8772 75.2729 34.5684 75.0185 34.2017C74.9336 34.0383 74.8876 33.8573 74.8843 33.673C75.0022 31.2629 75.1791 27.6335 75.4149 22.7847C75.6507 17.9359 75.8276 14.29 75.9455 11.8472C75.9449 11.7322 75.9731 11.619 76.0275 11.518C76.0818 11.4169 76.1606 11.3314 76.2566 11.2693C75.8113 9.1912 75.4332 7.14388 75.1039 5.12115C75.051 4.71128 75.295 4.46536 75.8357 4.38339C76.2413 4.29878 76.6617 4.32208 77.0556 4.45101C77.5505 4.5952 78.0154 4.82848 78.4278 5.13959C78.6163 5.2707 78.7763 5.4392 78.8979 5.63477C79.0196 5.83034 79.1003 6.04887 79.1353 6.277C79.7818 10.2241 80.5767 14.1179 81.52 17.9584C82.3333 21.2374 83.2908 24.5471 84.3927 27.8876C84.655 28.7176 84.9355 29.5476 85.2283 30.3837C85.2674 30.5523 85.3267 30.7154 85.4051 30.8694C85.4356 30.6911 85.5088 30.3099 85.6247 29.7136C86.8416 22.6437 87.1979 15.4505 86.6859 8.29357C86.631 7.61114 87.1312 7.37136 88.1924 7.58039C88.6451 7.63181 89.0825 7.77684 89.477 8.0064C89.8716 8.23595 90.215 8.54512 90.4857 8.91454C90.5837 9.04732 90.6561 9.19748 90.6991 9.3572ZM84.783 31.7117H84.6916C84.6916 31.7445 84.722 31.7445 84.783 31.7117Z" fill="black"/>
<path d="M99.9327 6.68902C100.14 7.63583 99.8595 8.84085 99.0972 10.2918C98.4723 11.5056 97.7307 12.6547 96.8832 13.7225C96.4136 14.3373 95.6207 14.3926 94.4985 13.8577C94.0085 13.6651 93.57 13.3598 93.2177 12.9662C92.8944 12.5174 92.809 12.1916 92.9554 11.9825C93.8119 10.9005 94.5654 9.73949 95.206 8.51501C95.2051 8.50886 95.2055 8.50259 95.2073 8.49664C95.209 8.49069 95.212 8.4852 95.2161 8.48052C95.2202 8.47585 95.2252 8.4721 95.2308 8.46957C95.2364 8.46703 95.2425 8.46575 95.2487 8.46581C94.6326 8.37972 94.0442 8.1526 93.5287 7.80183C92.498 7.18702 92.2296 6.57219 92.7359 5.92664C93.4902 4.93096 94.571 4.23801 95.7854 3.97155C96.2361 3.86789 96.7036 3.86198 97.1568 3.95419C97.6099 4.04641 98.0385 4.23464 98.4141 4.50643C98.8019 4.74611 99.1368 5.0635 99.398 5.43893C99.6592 5.81435 99.8412 6.23983 99.9327 6.68902Z" fill="black"/>
<path d="M22.0052 58.3886C22.1274 58.5197 22.2377 58.6617 22.3346 58.8128C22.4351 58.9729 22.517 59.1441 22.5785 59.3231C22.6121 59.4007 22.6294 59.4844 22.6294 59.569C22.6294 59.6537 22.6121 59.7374 22.5785 59.815C22.5287 59.8983 22.4614 59.9695 22.3813 60.0237C22.3012 60.0779 22.2103 60.1137 22.115 60.1285C17.6708 60.9893 13.2388 62.0283 8.81906 63.2456C9.70342 63.6883 10.1303 64.1801 10.0998 64.715C10.0389 65.5757 9.99618 66.4979 9.96568 67.4755C11.0269 67.205 12.0576 66.9714 13.0579 66.7623C13.5691 66.6598 14.0973 66.6834 14.5975 66.8311C15.0977 66.9789 15.5551 67.2464 15.9306 67.6108C16.0275 67.7064 16.1171 67.8091 16.1989 67.9182C16.2864 68.0429 16.36 68.1769 16.4185 68.3178C16.4748 68.4533 16.5118 68.5961 16.5282 68.742C16.5352 68.8059 16.5291 68.8705 16.5102 68.9318C16.4913 68.9932 16.4601 69.05 16.4185 69.0986C16.314 69.2109 16.1737 69.2827 16.022 69.3015C13.9321 69.7442 11.8401 70.234 9.74611 70.7709C9.39236 76.4395 8.89225 82.0957 8.24575 87.7397C8.15426 88.5082 7.52606 88.7172 6.34285 88.3545C5.79139 88.2229 5.27776 87.964 4.84247 87.5983C4.40334 87.1802 4.19597 86.8421 4.23256 86.5715C4.78961 81.7022 5.24502 76.8042 5.59876 71.8776L5.55607 71.9206C5.07264 72.0403 4.56465 72.0102 4.09838 71.8345C3.59746 71.6726 3.13173 71.416 2.7261 71.0783C2.60387 70.9472 2.49365 70.8052 2.39676 70.6541C2.29717 70.4935 2.21534 70.3224 2.15279 70.1438C2.1192 70.0662 2.10188 69.9825 2.10188 69.8978C2.10188 69.8132 2.1192 69.7295 2.15279 69.6519C2.20256 69.5687 2.26987 69.4974 2.34997 69.4432C2.43007 69.389 2.521 69.3532 2.61632 69.3384L5.79392 68.4899C5.88337 66.9775 5.95861 65.4938 6.0196 64.0387L3.45799 64.7949C2.97591 64.9157 2.46935 64.8922 2.00031 64.7273C1.48984 64.579 1.02023 64.3139 0.628024 63.9526C0.481775 63.8309 0.354331 63.688 0.249886 63.5284C0.151781 63.377 0.0777115 63.211 0.0303296 63.0366C-0.0140853 62.8809 0.00115787 62.7141 0.0730274 62.5693C0.124388 62.4861 0.192916 62.4151 0.273953 62.361C0.354989 62.3069 0.446627 62.271 0.542647 62.2557C6.66894 60.3545 12.8905 58.7805 19.1813 57.5402C19.6851 57.4528 20.202 57.4839 20.6918 57.631C21.1817 57.7782 21.6311 58.0375 22.0052 58.3886Z" fill="black"/>
<path d="M29.8548 63.5529C31.6824 65.2115 33.1881 67.1983 34.2949 69.412C35.3796 71.5408 35.9481 73.8986 35.9538 76.2918C35.9224 78.3408 35.4632 80.3603 34.6059 82.2185C33.7896 84.0461 32.5314 85.6378 30.9465 86.848C30.0435 87.5839 28.9731 88.0815 27.8316 88.2962C26.6902 88.5109 25.5137 88.4358 24.4083 88.0777C22.1328 87.3879 20.2044 85.8486 19.0168 83.774C17.984 82.0238 17.6018 79.7982 17.8701 77.0972C18.0814 74.8232 18.5794 72.5857 19.3522 70.4387C20.1046 68.3168 21.1298 66.3036 22.4017 64.4505C23.8411 62.3437 25.4899 61.1695 27.3481 60.9276C27.873 60.8799 28.4009 60.9799 28.8728 61.2166C29.3622 61.4295 29.7933 61.7586 30.1292 62.1757C30.2209 62.2869 30.2897 62.4154 30.3316 62.5536C30.3735 62.6919 30.3876 62.8372 30.3732 62.9811C30.3485 63.1157 30.2868 63.2407 30.1952 63.3418C30.1035 63.4429 29.9856 63.516 29.8548 63.5529ZM29.2814 82.7965C30.3221 81.4688 31.0743 79.9355 31.4893 78.296C31.9261 76.6408 32.0319 74.9145 31.8004 73.2177C31.3572 69.9822 29.8291 66.9969 27.47 64.7579C26.7734 65.5372 26.1601 66.3883 25.6403 67.2971C24.4961 69.18 23.5905 71.2 22.9445 73.3099C22.3559 75.1723 21.9994 77.1012 21.8833 79.0522C21.7654 81.3107 22.1029 83.0629 22.8957 84.3089C23.0648 84.6001 23.2697 84.8687 23.5056 85.1082C23.7253 85.3073 23.962 85.4863 24.2131 85.643H24.2558C24.3104 85.6717 24.3711 85.6865 24.4327 85.6861L24.7865 85.7352L25.2256 85.6861C26.5836 85.4443 27.9234 84.481 29.2449 82.7965H29.2814Z" fill="#FBD034"/>
<path d="M52.4213 61.2842C53.576 61.7883 54.0782 62.4257 53.9277 63.1962C53.7488 64.1185 53.5048 65.4116 53.1958 67.0757C52.8848 68.7357 52.5859 70.2604 52.3359 71.6376C52.0858 73.0148 51.8175 74.3182 51.5857 75.5355C51.1405 77.7304 50.7623 79.4088 50.433 80.5646C50.0493 82.1484 49.4325 83.6654 48.6032 85.0651C48.2811 85.5491 47.8573 85.9558 47.362 86.2564C46.8666 86.5571 46.3118 86.7444 45.7367 86.8049C44.545 86.9509 43.3372 86.7369 42.2663 86.1901C41.203 85.6774 40.2844 84.9037 39.595 83.9399C38.0336 81.8332 37.3403 78.5234 37.5152 74.0107C37.6372 71.7851 38.0438 68.1926 38.735 63.2331C38.8204 62.4585 39.4547 62.2371 40.6318 62.563C41.1831 62.7223 41.6959 62.9944 42.1383 63.3622C42.5774 63.7496 42.7848 64.0939 42.7482 64.389C42.0691 69.3075 41.6625 72.9 41.5284 75.1666C41.4581 76.7583 41.5316 78.3531 41.7479 79.9314C41.8405 81.2889 42.2591 82.6035 42.9677 83.7617C43.0226 83.8477 43.1141 83.9707 43.23 84.1182H43.2727C43.5742 84.1176 43.8681 84.0231 44.1144 83.8477C44.4553 83.5228 44.7453 83.1476 44.9743 82.7349C45.185 82.3946 45.3705 82.0391 45.5293 81.6713C45.6147 81.4315 45.7794 80.9827 46.0112 80.331C46.1575 79.8576 46.3161 79.3534 46.4747 78.8186C46.6333 78.2837 46.7735 77.8041 46.8772 77.3738C46.9809 76.9434 47.0907 76.4208 47.2066 75.8122C47.3225 75.2035 47.42 74.7116 47.4932 74.3428L47.8043 72.7811C47.9324 72.1171 48.0299 71.6068 48.0909 71.2502L49.018 66.3318C49.4266 64.1307 49.756 62.4892 49.9877 61.4133C50.0182 61.1428 50.2195 60.989 50.5976 60.946C50.9382 60.8991 51.2847 60.9221 51.6162 61.0137C51.8901 61.0861 52.159 61.1765 52.4213 61.2842ZM43.3642 84.2166V84.1736H43.2727L43.3642 84.2166Z" fill="black"/>
<path d="M70.8646 62.7969C71.1597 67.3222 71.1312 71.8631 70.7793 76.3843C70.6024 78.3701 70.3767 80.3437 70.1145 82.3049C69.9071 83.7005 69.7302 84.7088 69.5838 85.3359C69.5109 86.0269 69.2152 86.6748 68.7422 87.1803C68.4897 87.4338 68.1853 87.6285 67.8502 87.7506C67.5151 87.8728 67.1576 87.9194 66.8027 87.8874C66.0736 87.8358 65.3642 87.6261 64.7229 87.2725C64.1076 86.9468 63.5426 86.5326 63.0457 86.0429L62.6065 85.4896C62.4535 85.287 62.3187 85.0709 62.204 84.844C62.0881 84.6043 61.9844 84.3891 61.899 84.2292C61.8137 84.0694 61.71 83.805 61.6124 83.5345C61.5148 83.264 61.4233 83.0488 61.3684 82.8705C61.3135 82.6922 61.2281 82.4463 61.1245 82.1327C61.0456 81.9069 60.9785 81.677 60.9232 81.4441C60.4536 80.11 60.0144 78.739 59.5997 77.3434C59.5387 78.5033 59.4513 80.3006 59.3374 82.7352C59.2155 85.1945 59.1301 87.0389 59.0691 88.2685C59.0691 89.0125 58.4592 89.2523 57.3918 88.9817C56.9519 88.9269 56.5281 88.7799 56.1479 88.5501C55.7676 88.3204 55.4393 88.0129 55.184 87.6476C55.0969 87.4829 55.0508 87.2993 55.0498 87.1127C55.1677 84.7067 55.3446 81.0773 55.5804 76.2244C55.8162 71.3715 55.9931 67.7257 56.111 65.2869C56.1114 65.1728 56.1393 65.0606 56.1925 64.9599C56.2456 64.8592 56.3223 64.773 56.416 64.709C55.9769 62.6309 55.5947 60.5815 55.2694 58.5609C55.2084 58.151 55.4523 57.9051 56.0013 57.8231C56.4068 57.7388 56.8271 57.7621 57.2211 57.8907C57.7138 58.0356 58.1766 58.2689 58.5872 58.5793C58.777 58.7091 58.9379 58.8772 59.0597 59.073C59.1815 59.2688 59.2615 59.488 59.2947 59.7167C59.9412 63.6638 60.7361 67.5576 61.6795 71.3981C62.4927 74.6771 63.4502 77.9869 64.5521 81.3273C64.8205 82.1573 65.101 82.9935 65.3938 83.8235C65.4298 83.9929 65.4894 84.1564 65.5707 84.3092C65.6012 84.137 65.6744 83.7497 65.7902 83.1533C67.0071 76.0834 67.3635 68.8903 66.8515 61.7333C66.7905 61.0509 67.2906 60.8111 68.3518 61.0201C68.8053 61.0718 69.2435 61.2169 69.639 61.4464C70.0345 61.6759 70.3791 61.9849 70.6512 62.3543C70.7475 62.4881 70.8197 62.6379 70.8646 62.7969ZM64.9425 85.1576H64.8571C64.8571 85.1576 64.8876 85.1822 64.9425 85.1576Z" fill="black"/>
<path d="M93.5718 68.4102C94.017 70.728 93.6145 73.3287 92.352 76.2921C91.3292 78.861 89.7786 81.1826 87.8021 83.1042C85.341 85.5609 82.1894 87.1944 78.7755 87.7829C78.5129 87.9061 78.2214 87.9529 77.9338 87.9181C77.4215 88.0046 76.9039 88.056 76.3847 88.0718C75.8613 88.0856 75.3418 87.9784 74.866 87.7583C74.3801 87.5599 73.958 87.2301 73.6462 86.8053C73.5262 86.6847 73.4421 86.5328 73.4033 86.3666C73.3645 86.2004 73.3726 86.0265 73.4266 85.8647C73.5028 85.7083 73.6237 85.5785 73.7737 85.4919C73.9237 85.4054 74.0959 85.3661 74.2683 85.379L75.2807 85.2868C76.342 78.282 77.1674 71.2609 77.7569 64.2233C77.4032 64.4016 77.0616 64.5799 76.7384 64.7582C75.978 65.1681 75.0652 65.0349 73.9999 64.3586C73.8534 64.2741 73.7198 64.1684 73.6035 64.0451C73.4391 63.8757 73.2844 63.6971 73.14 63.5102C73 63.3581 72.9141 63.1635 72.896 62.9568C72.9072 62.8596 72.9413 62.7665 72.9954 62.6852C73.0495 62.604 73.122 62.5369 73.207 62.4896C74.7191 61.647 76.3381 61.0161 78.0192 60.6144C78.0192 60.0549 78.0924 59.5324 78.1534 59.0589C78.1839 58.315 78.7633 58.0814 79.8794 58.3457C80.3167 58.4091 80.7358 58.5652 81.109 58.8036C81.4822 59.0421 81.801 59.3575 82.0446 59.7291L82.1299 60.1718C84.1511 60.1866 86.1433 60.6571 87.9606 61.5489C91.1443 63.0532 93.0147 65.3402 93.5718 68.4102ZM88.5339 74.38C89.5239 72.2311 89.9019 69.8471 89.6257 67.4941C89.5763 66.9854 89.4422 66.4886 89.2292 66.0247C89.1649 65.8105 89.077 65.6043 88.967 65.4099C88.9269 65.3314 88.8821 65.2554 88.8328 65.1824L88.7901 65.0964L88.6986 64.9611C88.5692 64.8233 88.4509 64.6752 88.3449 64.5184L88.2107 64.3832L87.863 64.0266C87.7962 63.9687 87.7198 63.9229 87.6374 63.8914C87.5736 63.8277 87.4993 63.7757 87.4178 63.7377C87.3541 63.7092 87.2945 63.672 87.241 63.627H87.1861V63.5839C87.1163 63.5706 87.0486 63.5479 86.9848 63.5163L86.7408 63.4056C86.6476 63.373 86.5594 63.3275 86.4786 63.2704C86.3954 63.2553 86.3137 63.2327 86.2346 63.2028C86.1424 63.1676 86.0461 63.1448 85.948 63.1351L85.0636 62.9138C84.1697 62.7938 83.265 62.7793 82.3678 62.8707C82.238 62.9019 82.1048 62.9164 81.9714 62.9138C81.4387 70.0087 80.6723 77.0606 79.672 84.0694C81.5907 83.2068 83.3183 81.965 84.7525 80.4175C86.3699 78.6559 87.6517 76.6094 88.5339 74.38Z" fill="black"/>
</g>
<defs>
<clipPath id="clip0_214_686">
<rect width="100" height="89" fill="white"/>
</clipPath>
</defs>
</svg>
